<svg width="17" height="18" viewBox="0 0 17 18" fill="none" xmlns="http://www.w3.org/2000/svg">
<g clip-path="url(#clip0_2_1702)">
<path d="M8.16546 1.6335C8.33568 1.41709 8.66349 1.41709 8.83371 1.6335L10.1149 3.2631C10.2215 3.39855 10.3992 3.45629 10.5649 3.40932L12.5593 2.84405C12.8242 2.76898 13.0895 2.9617 13.0999 3.2368L13.1786 5.30829C13.1852 5.48045 13.295 5.63164 13.4568 5.69107L15.4025 6.40605C15.6609 6.501 15.7623 6.81283 15.609 7.04154L14.4551 8.76366C14.3592 8.90681 14.3592 9.09367 14.4551 9.23682L15.609 10.9589C15.7623 11.1876 15.6609 11.4995 15.4025 11.5944L13.4568 12.3094C13.295 12.3689 13.1852 12.52 13.1786 12.6922L13.0999 14.7637C13.0895 15.0388 12.8242 15.2315 12.5593 15.1564L10.5649 14.5912C10.3992 14.5442 10.2215 14.602 10.1149 14.7374L8.83371 16.367C8.66349 16.5834 8.33568 16.5834 8.16546 16.367L6.88422 14.7374C6.77773 14.602 6.6 14.5442 6.43423 14.5912L4.43981 15.1564C4.17495 15.2315 3.90968 15.0388 3.89924 14.7637L3.82053 12.6922C3.81398 12.52 3.70414 12.3689 3.54241 12.3094L1.59664 11.5944C1.33824 11.4995 1.23692 11.1876 1.39016 10.9589L2.54407 9.23682C2.63998 9.09367 2.63998 8.90681 2.54407 8.76366L1.39016 7.04154C1.23692 6.81283 1.33824 6.501 1.59664 6.40605L3.54242 5.69107C3.70414 5.63164 3.81398 5.48045 3.82053 5.30829L3.89924 3.2368C3.90968 2.9617 4.17495 2.76898 4.43982 2.84405L6.43423 3.40932C6.6 3.45629 6.77773 3.39855 6.88422 3.2631L8.16546 1.6335Z" fill="#5C76E6" stroke="#5C76E6" stroke-width="1.0625"/>
<path d="M5.13995 9.0001L7.38026 11.1745L11.8609 6.82568" stroke="white" stroke-width="1.0625" stroke-linecap="round" stroke-linejoin="round"/>
</g>
<defs>
<clipPath id="clip0_2_1702">
<rect width="17" height="17" fill="white" transform="translate(0 0.5)"/>
</clipPath>
</defs>
</svg>
